<?xml version="1.0" standalone="no"?>
<!DOCTYPE svg PUBLIC "-//W3C//DTD SVG 20010904//EN"
 "http://www.w3.org/TR/2001/REC-SVG-20010904/DTD/svg10.dtd">
<svg version="1.0" xmlns="http://www.w3.org/2000/svg"
 width="268.000000pt" height="370.000000pt" viewBox="0 0 268.000000 370.000000"
 preserveAspectRatio="xMidYMid meet">

<g transform="translate(0.000000,370.000000) scale(0.100000,-0.100000)"
fill="#000000" stroke="none">
<path d="M1451 3578 c-51 -132 -236 -566 -246 -577 -8 -8 -35 -26 -60 -40 -45
-25 -49 -31 -96 -145 -27 -66 -49 -122 -49 -124 0 -15 22 18 53 82 37 74 40
76 92 92 l55 18 31 75 c46 113 231 546 234 549 2 2 25 -43 53 -100 169 -347
228 -471 391 -811 100 -208 181 -380 181 -382 0 -3 -39 -92 -86 -200 l-86
-195 248 -540 c137 -297 251 -540 254 -540 3 0 29 70 56 156 l51 155 -118 241
-119 240 16 91 c8 51 17 93 19 95 10 10 34 -62 41 -119 7 -62 14 -82 195 -499
l20 -45 -82 -260 c-45 -143 -85 -263 -88 -268 -4 -4 -53 91 -109 210 -56 120
-106 223 -110 228 -18 26 -75 45 -151 51 l-82 7 -96 196 c-104 213 -101 207
-108 199 -3 -2 43 -110 101 -239 58 -129 108 -242 111 -251 4 -14 20 -18 95
-20 l89 -3 118 -255 c64 -140 128 -281 142 -312 25 -61 38 -67 50 -27 4 13 55
174 113 358 58 184 106 350 106 370 0 35 -10 57 -252 560 -48 101 -88 191 -88
200 0 9 10 77 22 151 l21 136 -133 259 c-73 143 -161 314 -195 380 -34 66 -79
154 -100 195 -32 63 -39 72 -46 55 -20 -52 -8 -95 106 -366 63 -151 115 -283
115 -294 0 -11 -4 -26 -9 -34 -7 -11 -14 -5 -29 25 -20 39 -208 430 -287 599
-24 50 -106 222 -184 384 -77 161 -141 298 -141 302 0 18 -21 8 -29 -13z"/>
<path d="M571 1828 c-38 -79 -142 -291 -231 -473 -338 -687 -321 -650 -318
-724 l3 -65 84 180 c45 98 128 274 184 390 98 208 101 212 139 225 21 7 42 17
47 23 4 6 53 119 109 251 100 237 101 241 91 288 -7 29 -16 47 -25 47 -8 0
-43 -60 -83 -142z"/>
<path d="M706 1213 c-10 -21 -102 -225 -203 -453 -102 -228 -195 -435 -206
-460 -24 -54 -21 -61 -58 138 -13 72 -27 132 -30 132 -3 0 -13 -17 -21 -37
-13 -35 -11 -50 20 -198 18 -88 39 -182 45 -209 l13 -49 37 89 c20 49 68 168
107 264 134 330 117 299 179 328 l55 27 82 205 82 205 183 3 c152 2 190 5 217
19 17 10 32 21 32 25 0 5 -116 8 -258 8 l-258 0 -18 -37z"/>
</g>
</svg>
