<?xml version="1.0" encoding="UTF-8"?>
<!DOCTYPE svg PUBLIC "-//W3C//DTD SVG 1.1//EN" "http://www.w3.org/Graphics/SVG/1.1/DTD/svg11.dtd">
<svg xmlns="http://www.w3.org/2000/svg" version="1.1" width="4500px" height="4500px" style="shape-rendering:geometricPrecision; text-rendering:geometricPrecision; image-rendering:optimizeQuality; fill-rule:evenodd; clip-rule:evenodd" xmlns:xlink="http://www.w3.org/1999/xlink">
<g><path style="opacity:1" fill="#0c1c33" d="M -0.5,-0.5 C 1499.5,-0.5 2999.5,-0.5 4499.5,-0.5C 4499.5,1499.5 4499.5,2999.5 4499.5,4499.5C 2999.5,4499.5 1499.5,4499.5 -0.5,4499.5C -0.5,2999.5 -0.5,1499.5 -0.5,-0.5 Z"/></g>
<g><path style="opacity:1" fill="#3b988e" d="M 2237.5,486.5 C 2239.95,487.473 2242.61,487.806 2245.5,487.5C 2245.17,1175.67 2245.5,1863.67 2246.5,2551.5C 2246.5,2568.5 2246.5,2585.5 2246.5,2602.5C 2186.25,2451.5 2097.25,2320 1979.5,2208C 1828.47,2065.63 1652.8,1965.96 1452.5,1909C 1384.75,1892.62 1316.09,1881.62 1246.5,1876C 1203.22,1872.74 1159.89,1870.4 1116.5,1869C 864.887,1861.78 613.22,1858.11 361.5,1858C 332.103,1854.42 302.77,1854.75 273.5,1859C 263.994,1860.33 256.494,1864.83 251,1872.5C 250.476,1878.85 250.642,1885.18 251.5,1891.5C 215.095,1794.76 197.095,1694.42 197.5,1590.5C 199.574,1449.56 228.741,1314.9 285,1186.5C 391.028,951.472 556.528,770.972 781.5,645C 882.481,591.584 988.481,551.25 1099.5,524C 1127.37,517.604 1155.37,511.604 1183.5,506C 1333.13,501.747 1482.8,498.414 1632.5,496C 1834.15,492 2035.82,488.834 2237.5,486.5 Z"/></g>
<g><path style="opacity:1" fill="#235a60" d="M 2237.5,486.5 C 2240.5,486.5 2243.5,486.5 2246.5,486.5C 2246.5,1174.83 2246.5,1863.17 2246.5,2551.5C 2245.5,1863.67 2245.17,1175.67 2245.5,487.5C 2242.61,487.806 2239.95,487.473 2237.5,486.5 Z"/></g>
<g><path style="opacity:1" fill="#40a396" d="M 3359.5,506.5 C 3604.85,498.984 3819.18,575.484 4002.5,736C 4183,902.187 4282.17,1108.02 4300,1353.5C 4310.99,1600.89 4235.99,1817.56 4075,2003.5C 3920.68,2173.58 3729.18,2272.75 3500.5,2301C 3269.72,2323.56 3060.38,2268.23 2872.5,2135C 2670.5,1983.91 2549.67,1783.41 2510,1533.5C 2481.92,1321.91 2521.92,1124.58 2630,941.5C 2740.67,762.833 2894.17,636 3090.5,561C 3177.48,529.437 3267.15,511.27 3359.5,506.5 Z"/></g>
<g><path style="opacity:1" fill="#63fed9" d="M 2246.5,2602.5 C 2246.5,2603.83 2246.5,2605.17 2246.5,2606.5C 2247.91,2613.89 2247.74,2621.22 2246,2628.5C 2241.33,2633.92 2235.5,2637.42 2228.5,2639C 2207.35,2643.18 2186.02,2644.51 2164.5,2643C 2155.19,2642.04 2145.86,2641.37 2136.5,2641C 1884.78,2640.87 1633.11,2637.21 1381.5,2630C 1305.8,2628.24 1230.47,2622.24 1155.5,2612C 1069.52,2599.14 986.52,2576.14 906.5,2543C 719.791,2464.95 560.624,2349.12 429,2195.5C 354.091,2106.07 295.257,2006.73 252.5,1897.5C 252.672,1896.51 252.338,1895.84 251.5,1895.5C 251.5,1894.17 251.5,1892.83 251.5,1891.5C 250.642,1885.18 250.476,1878.85 251,1872.5C 256.494,1864.83 263.994,1860.33 273.5,1859C 302.77,1854.75 332.103,1854.42 361.5,1858C 613.22,1858.11 864.887,1861.78 1116.5,1869C 1159.89,1870.4 1203.22,1872.74 1246.5,1876C 1316.09,1881.62 1384.75,1892.62 1452.5,1909C 1652.8,1965.96 1828.47,2065.63 1979.5,2208C 2097.25,2320 2186.25,2451.5 2246.5,2602.5 Z"/></g>
<g><path style="opacity:1" fill="#235a60" d="M 251.5,1895.5 C 252.338,1895.84 252.672,1896.51 252.5,1897.5C 252.5,2602.17 252.5,3306.83 252.5,4011.5C 276.5,4011.5 300.5,4011.5 324.5,4011.5C 300.339,4012.5 276.006,4012.83 251.5,4012.5C 251.5,3306.83 251.5,2601.17 251.5,1895.5 Z"/></g>
<g><path style="opacity:1" fill="#3b988e" d="M 252.5,1897.5 C 295.257,2006.73 354.091,2106.07 429,2195.5C 560.624,2349.12 719.791,2464.95 906.5,2543C 986.52,2576.14 1069.52,2599.14 1155.5,2612C 1230.47,2622.24 1305.8,2628.24 1381.5,2630C 1633.11,2637.21 1884.78,2640.87 2136.5,2641C 2145.86,2641.37 2155.19,2642.04 2164.5,2643C 2186.02,2644.51 2207.35,2643.18 2228.5,2639C 2235.5,2637.42 2241.33,2633.92 2246,2628.5C 2247.74,2621.22 2247.91,2613.89 2246.5,2606.5C 2292.23,2730.01 2309.07,2857.68 2297,2989.5C 2283.07,3133.93 2241.41,3269.59 2172,3396.5C 2027.59,3654.6 1816.43,3833.44 1538.5,3933C 1465.44,3958.93 1390.78,3978.93 1314.5,3993C 1164.87,3997.25 1015.2,4000.59 865.5,4003C 685.178,4006.61 504.844,4009.44 324.5,4011.5C 300.5,4011.5 276.5,4011.5 252.5,4011.5C 252.5,3306.83 252.5,2602.17 252.5,1897.5 Z"/></g>
<g><path style="opacity:1" fill="#265f64" d="M 2667.5,2501.5 C 3156.67,2500.5 3646,2500.17 4135.5,2500.5C 4135.83,2509.68 4135.49,2518.68 4134.5,2527.5C 4134.5,2518.83 4134.5,2510.17 4134.5,2501.5C 3645.5,2501.5 3156.5,2501.5 2667.5,2501.5 Z"/></g>
<g><path style="opacity:1" fill="#40a396" d="M 2667.5,2501.5 C 3156.5,2501.5 3645.5,2501.5 4134.5,2501.5C 4134.5,2510.17 4134.5,2518.83 4134.5,2527.5C 4128.07,2825.61 4040.57,3096.61 3872,3340.5C 3689.98,3596.84 3451.15,3778.67 3155.5,3886C 2997.66,3940.91 2834.99,3968.41 2667.5,3968.5C 2667.5,3479.5 2667.5,2990.5 2667.5,2501.5 Z"/></g>
</svg>
